<svg width="23" height="23" viewBox="0 0 23 23" fill="none" xmlns="http://www.w3.org/2000/svg">
<path d="M1.48355 23H21.4722C21.7206 23.0002 21.9648 22.9361 22.181 22.8138C22.3972 22.6915 22.578 22.5153 22.7058 22.3023C22.8337 22.0894 22.9041 21.8469 22.9104 21.5986C22.9166 21.3503 22.8584 21.1046 22.7414 20.8854L12.7687 2.19794C12.6463 1.9683 12.4639 1.77624 12.2408 1.64229C12.0177 1.50835 11.7625 1.43756 11.5023 1.4375H11.5009C10.9705 1.4375 10.4846 1.72931 10.2345 2.1965L0.217188 20.884C0.10001 21.103 0.0414738 21.3487 0.0472668 21.597C0.0530597 21.8454 0.122984 22.088 0.250248 22.3014C0.378197 22.5142 0.558982 22.6904 0.775068 22.8128C0.991153 22.9352 1.2352 22.9997 1.48355 23ZM11.5009 17.25C11.6897 17.25 11.8766 17.2873 12.051 17.3596C12.2255 17.4319 12.3839 17.5378 12.5174 17.6714C12.6509 17.8049 12.7568 17.9635 12.829 18.1379C12.9012 18.3124 12.9383 18.4994 12.9383 18.6882C12.9382 18.877 12.901 19.064 12.8287 19.2384C12.7564 19.4129 12.6504 19.5714 12.5169 19.7048C12.3834 19.8383 12.2248 19.9442 12.0504 20.0164C11.8759 20.0886 11.6889 20.1258 11.5001 20.1257C11.1188 20.1256 10.7532 19.974 10.4836 19.7043C10.214 19.4346 10.0626 19.0688 10.0627 18.6875C10.0628 18.3062 10.2144 17.9405 10.4841 17.6709C10.7538 17.4013 11.1195 17.2499 11.5009 17.25ZM10.0634 14.398V8.648C10.0634 8.26675 10.2149 7.90112 10.4845 7.63153C10.754 7.36195 11.1196 7.2105 11.5009 7.2105C11.8821 7.2105 12.2477 7.36195 12.5173 7.63153C12.7868 7.90112 12.9383 8.26675 12.9383 8.648V14.398C12.9383 14.7792 12.7868 15.1449 12.5173 15.4145C12.2477 15.684 11.8821 15.8355 11.5009 15.8355C11.1196 15.8355 10.754 15.684 10.4845 15.4145C10.2149 15.1449 10.0634 14.7792 10.0634 14.398Z" fill="#FF5D39"/>
</svg>
