<svg width="27" height="27" viewBox="0 0 27 27" fill="none" xmlns="http://www.w3.org/2000/svg">
<path d="M21.3047 14.3438C18.3937 14.3438 16.0312 16.7062 16.0312 19.6172C16.0312 22.5281 18.3937 24.8906 21.3047 24.8906C24.2156 24.8906 26.5781 22.5281 26.5781 19.6172C26.5781 16.7062 24.2156 14.3438 21.3047 14.3438Z" fill="#FFCE54"/>
<path d="M14.7656 21.9378V24.8909H0.421875V21.9336C0.421875 20.3009 1.74234 18.9805 3.375 18.9805V18.9847L5.0625 18.9805L6.32812 19.8284L7.59375 19.4023L8.85938 19.8284L10.125 18.9805L11.8125 18.9847C13.4452 18.9847 14.7656 20.3052 14.7656 21.9378Z" fill="#5D9CEC"/>
<path d="M11.8132 18.9847L10.1257 18.9805L10.1211 18.9838L10.5463 18.9847C12.179 18.9847 13.4995 20.3052 13.4995 21.9378V24.8909H14.7664V21.9378C14.7664 20.3052 13.4459 18.9847 11.8132 18.9847Z" fill="#4A89DC"/>
<path d="M3.37308 18.9813V18.9805C3.36548 18.9805 3.35916 18.9813 3.35156 18.9813H3.37308Z" fill="#5D9CEC"/>
<path d="M16.0312 2.10938V11.8125H17.2969V13.0781L19.4062 11.8125H26.1562V2.10938H16.0312Z" fill="#ED5565"/>
<path d="M23.7577 6.15516L22.4288 7.45031L22.7409 9.28125L21.0956 8.41641L19.4503 9.28125L19.7667 7.45031L18.4336 6.15516L20.273 5.88516L21.0956 4.21875L21.9183 5.88516L23.7577 6.15516Z" fill="#FFCE54"/>
<path d="M13.0781 10.125V11.8125C13.0781 13.9303 11.88 15.7655 10.125 16.6763C9.36562 17.0737 8.505 17.2969 7.59375 17.2969C6.6825 17.2969 5.82188 17.0737 5.0625 16.6763C3.3075 15.7655 2.10938 13.9303 2.10938 11.8125V10.125L3.375 8.85938C3.375 8.85938 5.30297 9.70312 7.59375 9.70312C9.88453 9.70312 11.8125 8.85938 11.8125 8.85938L13.0781 10.125Z" fill="#EAC6BB"/>
<path d="M11.8133 8.85938L11.8121 8.8598V11.8125C11.8121 13.9303 10.614 15.7655 8.85895 16.6763C8.27845 16.98 7.63763 17.1796 6.96094 17.2581C7.16934 17.2821 7.38028 17.2969 7.59459 17.2969C8.50584 17.2969 9.36647 17.0737 10.1258 16.6763C11.8808 15.7655 13.079 13.9299 13.079 11.8125V10.125L11.8133 8.85938Z" fill="#D3B1A9"/>
<path d="M10.125 16.6758V18.9796L8.85938 19.8276L7.59375 19.4015L6.32812 19.8276L5.0625 18.9796V16.6758C5.82187 17.0732 6.6825 17.2964 7.59375 17.2964C8.505 17.2964 9.36562 17.0732 10.125 16.6758Z" fill="#87BCF4"/>
<path d="M3.375 8.85938L2.10938 10.125V8.01562C2.10938 5.21438 4.37484 2.95312 7.17188 2.95312H10.5469V4.64062C11.9475 4.64062 13.0781 5.77125 13.0781 7.17188V10.125L11.8125 8.85938C11.8125 8.85938 9.88453 9.70312 7.59375 9.70312C5.30297 9.70312 3.375 8.85938 3.375 8.85938Z" fill="#965353"/>
<path d="M10.5469 5.90625C11.2447 5.90625 11.8125 6.47409 11.8125 7.17188V8.85938L13.0781 10.125V7.17188C13.0781 5.77125 11.9475 4.64062 10.5469 4.64062V2.95312H9.28125V4.64062C9.28125 5.33967 9.84783 5.90625 10.5469 5.90625Z" fill="#844747"/>
<path d="M20.6719 18.3516H19.4062V19.6172H20.6719V18.3516Z" fill="#656D78"/>
<path d="M21.9375 19.6172H20.6719V20.8828H21.9375V19.6172Z" fill="#656D78"/>
<path d="M24.4688 19.6172H23.2031V20.8828H24.4688V19.6172Z" fill="#656D78"/>
<path d="M23.2031 18.3516H21.9375V19.6172H23.2031V18.3516Z" fill="#656D78"/>
<path d="M19.4062 19.6172H18.1406V20.8828H19.4062V19.6172Z" fill="#656D78"/>
<path d="M7.60758 21.9355C7.37428 21.9355 7.18359 21.747 7.18359 21.5137C7.18359 21.2804 7.37006 21.0918 7.60294 21.0918H7.60758C7.84045 21.0918 8.02945 21.2804 8.02945 21.5137C8.02945 21.747 7.84045 21.9355 7.60758 21.9355ZM7.60758 23.623C7.37428 23.623 7.18359 23.4345 7.18359 23.2012C7.18359 22.9679 7.37006 22.7793 7.60294 22.7793H7.60758C7.84045 22.7793 8.02945 22.9679 8.02945 23.2012C8.02945 23.4345 7.84045 23.623 7.60758 23.623Z" fill="#87BCF4"/>
</svg>
